<?xml version="1.0" encoding="utf-8"?>
<!-- Generator: Adobe Illustrator 24.0.0, SVG Export Plug-In . SVG Version: 6.00 Build 0)  -->
<svg version="1.1" id="Layer_1" xmlns="http://www.w3.org/2000/svg" xmlns:xlink="http://www.w3.org/1999/xlink" x="0px" y="0px"
	 viewBox="0 0 66.67 34.38" style="enable-background:new 0 0 66.67 34.38;" xml:space="preserve">
<style type="text/css">
	.st0{fill:#AA2349;}
	.st1{fill:#FFFFFF;}
	.st2{fill:#827D7E;}
</style>
<g>
	<path d="M64.25,27.48H2.42C1.08,27.48,0,26.39,0,25.06v-8.83c0-1.33,1.08-2.42,2.42-2.42h61.83c1.33,0,2.42,1.08,2.42,2.42v8.83
		C66.67,26.39,65.58,27.48,64.25,27.48z"/>
	<g>
		<path class="st0" d="M4.43,11.7c-0.36,0-0.72,0-1.07,0.01s-0.72,0.01-1.09,0.01c-0.05,0.03-0.11,0.04-0.16,0.03
			c-0.09-0.01-0.17,0-0.26,0.03c-0.09,0.03-0.17,0.06-0.26,0.08s-0.17,0.04-0.26,0.05c-0.09,0.01-0.18,0.03-0.27,0.05
			c-0.09,0.02-0.17,0.04-0.26,0.05c-0.09,0.01-0.18,0.03-0.27,0.05c-0.2,0.03-0.35,0-0.43-0.1s-0.11-0.3-0.08-0.59
			c0.17-0.03,0.34-0.07,0.52-0.1c0.18-0.04,0.35-0.06,0.54-0.07c0.18-0.02,0.36-0.02,0.55,0.01c0.18,0.03,0.36-0.02,0.53-0.14h0.03
			c0.14,0.02,0.24,0.03,0.31,0.04c0.07,0.01,0.12-0.01,0.14-0.04c0.03-0.03,0.04-0.09,0.03-0.18c-0.01-0.09-0.01-0.2-0.01-0.35
			C2.6,9.37,2.57,8.2,2.57,7.02c0-0.31,0.01-0.63,0.04-0.95s0.05-0.64,0.07-0.95C2.66,5.1,2.63,5.09,2.6,5.09
			C2.51,6,2.44,6.9,2.39,7.8c-0.05,0.9-0.04,1.81,0.05,2.74c-0.06,0.05-0.13,0.1-0.21,0.15c-0.07,0.05-0.15,0.1-0.24,0.15
			c-0.12-0.13-0.2-0.27-0.23-0.42c-0.04-0.15-0.07-0.31-0.09-0.47C1.58,8.9,1.56,7.86,1.59,6.82c0.03-1.04,0.15-2.07,0.35-3.1
			c0.09-0.51,0.18-1.02,0.3-1.52C2.35,1.7,2.46,1.2,2.57,0.7c0.03-0.11,0.07-0.21,0.1-0.3c0.04-0.1,0.08-0.22,0.12-0.37
			C2.9,0.11,2.99,0.18,3.06,0.24C3.13,0.3,3.19,0.35,3.24,0.41c0.09,0.01,0.17,0.02,0.25,0.02s0.15,0.01,0.22,0.03
			C3.8,0.5,3.86,0.57,3.88,0.66s0.03,0.2,0.02,0.3c-0.04,0.41-0.08,0.81-0.11,1.2s-0.08,0.8-0.13,1.2C3.53,4.51,3.42,5.64,3.34,6.77
			C3.26,7.9,3.21,9.04,3.19,10.19c-0.01,0.17-0.01,0.34-0.01,0.5c0.01,0.17,0.01,0.33,0.01,0.51c-0.12,0.04-0.24,0.09-0.38,0.13
			c-0.13,0.04-0.26,0.09-0.38,0.13c-0.01,0-0.02,0-0.02,0.01c-0.01,0.01-0.01,0.01-0.02,0.01c0.25-0.07,0.5-0.12,0.75-0.13
			c0.26-0.01,0.51-0.02,0.75-0.03c0.57-0.02,1.13-0.04,1.68-0.06s1.11-0.04,1.67-0.07c0.37-0.02,0.63-0.01,0.77,0.04
			c0.14,0.05,0.24,0.18,0.3,0.39c-0.64,0.01-1.28,0.02-1.92,0.03s-1.29,0.03-1.96,0.05H4.43z M2.63,4.69
			c0.02,0.01,0.05,0.02,0.1,0.02c0.02-0.16,0.04-0.32,0.06-0.49c0.02-0.17,0.03-0.33,0.06-0.5H2.76C2.74,3.87,2.72,4.04,2.69,4.2
			C2.67,4.37,2.65,4.53,2.63,4.69z M2.98,2.57C2.96,2.66,2.94,2.74,2.93,2.83C2.91,2.92,2.89,3.01,2.87,3.1c0.01,0,0.02,0,0.03,0.01
			s0.03,0.01,0.05,0.01c0.01-0.1,0.02-0.19,0.03-0.27S3,2.68,3.02,2.59C3.02,2.58,3,2.57,2.98,2.57z"/>
		<path class="st0" d="M8.13,7.64c-0.06,0.14-0.14,0.3-0.22,0.5C7.82,8.33,7.73,8.52,7.62,8.72C7.51,8.91,7.4,9.09,7.29,9.26
			C7.18,9.43,7.06,9.57,6.95,9.68c-0.21,0.2-0.43,0.33-0.63,0.39c-0.21,0.06-0.4,0.06-0.56,0.01c-0.17-0.05-0.3-0.16-0.41-0.31
			c-0.11-0.15-0.17-0.36-0.19-0.6C5.11,8.83,5.1,8.48,5.13,8.12C5.15,7.75,5.21,7.41,5.31,7.1c0.02-0.05,0.08-0.11,0.18-0.17
			c0.1-0.06,0.21-0.1,0.33-0.14s0.22-0.05,0.3-0.04S6.25,6.8,6.24,6.87c-0.06,0.5-0.11,0.9-0.14,1.19c-0.03,0.29-0.04,0.5-0.03,0.63
			C6.08,8.81,6.09,8.87,6.1,8.85c0.02-0.02,0.03-0.08,0.04-0.2c0.02-0.21,0.05-0.49,0.09-0.83C6.27,7.48,6.32,7.17,6.38,6.9
			c0.01-0.03,0.03,0,0.06,0.09c0.03,0.09,0.04,0.16,0.04,0.22C6.45,7.49,6.42,7.79,6.4,8.12C6.38,8.44,6.36,8.74,6.34,9.01
			C6.33,9.18,6.34,9.29,6.39,9.33C6.44,9.38,6.5,9.39,6.58,9.37s0.15-0.08,0.22-0.15c0.07-0.07,0.13-0.15,0.17-0.22
			C7.1,8.73,7.25,8.45,7.4,8.13c0.15-0.32,0.29-0.59,0.41-0.81c0.02-0.04,0.07-0.08,0.14-0.11c0.07-0.03,0.13-0.04,0.18-0.02
			c0.05,0.02,0.09,0.06,0.1,0.13C8.25,7.38,8.22,7.49,8.13,7.64z M6.35,5.19c0.14,0.27,0.13,0.46-0.02,0.58
			C6.19,5.88,5.98,5.9,5.71,5.81c-0.07-0.1-0.11-0.2-0.12-0.3s0.02-0.2,0.08-0.28S5.82,5.1,5.94,5.08C6.05,5.07,6.19,5.1,6.35,5.19z
			"/>
		<path class="st0" d="M9.74,13.99c-0.15-0.01-0.24-0.05-0.28-0.13C9.42,13.79,9.4,13.7,9.4,13.59c0.01-0.33,0.02-0.66,0.02-0.99
			s0.02-0.67,0.04-1.01c0.01-0.21,0.03-0.43,0.07-0.64s0.07-0.43,0.09-0.64c0.01-0.04,0.02-0.09,0.02-0.13c0-0.04,0-0.09,0-0.14
			c-0.1-0.02-0.2-0.01-0.3,0.03c-0.1,0.04-0.2,0.08-0.3,0.11c-0.1,0.03-0.19,0.03-0.29,0.01c-0.1-0.03-0.19-0.12-0.27-0.28
			c0.14-0.13,0.29-0.22,0.46-0.29C9.11,9.55,9.27,9.5,9.43,9.45c0.15-0.04,0.26-0.1,0.33-0.18s0.12-0.19,0.15-0.34
			c0.04-0.22,0.1-0.45,0.16-0.67c0.06-0.22,0.12-0.45,0.18-0.67c0.02-0.05,0.03-0.11,0.04-0.18c0.01-0.06,0-0.14-0.02-0.22
			c-0.06,0.08-0.13,0.15-0.18,0.22c-0.06,0.07-0.12,0.14-0.18,0.2C9.73,7.79,9.56,7.97,9.4,8.14C9.24,8.31,9.07,8.48,8.9,8.65
			C8.66,8.89,8.36,8.96,8,8.88c-0.3-0.09-0.45-0.26-0.45-0.53c0-0.34,0.05-0.67,0.14-0.97s0.26-0.59,0.48-0.84
			c0.14-0.19,0.3-0.37,0.48-0.53c0.2-0.17,0.39-0.25,0.55-0.23c0.17,0.02,0.37,0.12,0.62,0.3c-0.58,0.34-0.97,0.8-1.19,1.38
			C8.62,7.52,8.6,7.6,8.56,7.67S8.54,7.84,8.61,7.95c0.16-0.17,0.32-0.34,0.47-0.5c0.15-0.16,0.3-0.32,0.45-0.48
			c0.16-0.2,0.32-0.4,0.47-0.6c0.15-0.2,0.31-0.4,0.47-0.6c0.14-0.17,0.25-0.27,0.32-0.28c0.07-0.02,0.22,0.02,0.45,0.1
			c0.03,0.27,0.03,0.53,0.01,0.79c-0.03,0.26-0.06,0.51-0.11,0.77c-0.05,0.26-0.1,0.51-0.16,0.76c-0.06,0.25-0.11,0.51-0.15,0.76
			c-0.02,0.13-0.04,0.27-0.05,0.43c0.14,0.02,0.28,0.02,0.43-0.01c0.14-0.03,0.29-0.04,0.42-0.05c0.14-0.01,0.27,0.01,0.4,0.06
			c0.13,0.04,0.25,0.14,0.35,0.3c-0.22,0.03-0.45,0.06-0.67,0.1s-0.44,0.07-0.65,0.11c-0.2,0.03-0.33,0.07-0.37,0.11
			c-0.04,0.04-0.07,0.16-0.1,0.35c-0.05,0.28-0.09,0.55-0.12,0.81c-0.03,0.26-0.06,0.53-0.1,0.81c-0.05,0.36-0.11,0.73-0.16,1.09
			c-0.05,0.36-0.11,0.73-0.16,1.11c-0.04-0.04-0.06-0.09-0.06-0.15c0-0.06,0-0.12,0-0.18c0-0.06-0.01-0.11-0.04-0.16
			c-0.03-0.05-0.08-0.09-0.15-0.12c-0.02,0.06-0.03,0.12-0.04,0.18s-0.01,0.11-0.02,0.16V13.99z M9.87,12.13
			c0.09-0.39,0.17-0.77,0.25-1.15s0.13-0.78,0.15-1.21c-0.07,0.05-0.13,0.09-0.18,0.11c-0.04,0.02-0.07,0.04-0.08,0.06
			c-0.04,0.34-0.08,0.68-0.12,1s-0.07,0.66-0.1,0.99c0,0.03,0.01,0.06,0.02,0.1C9.83,12.07,9.84,12.1,9.87,12.13z M9.9,12.45
			c-0.02,0-0.04,0-0.04-0.01s-0.02-0.01-0.04-0.01c-0.01,0.04-0.02,0.08-0.02,0.11c-0.01,0.03-0.01,0.07-0.01,0.11h0.06
			C9.87,12.58,9.89,12.51,9.9,12.45z M10.57,7.15c-0.04,0.13-0.09,0.25-0.13,0.38c-0.04,0.12-0.07,0.25-0.1,0.38
			c-0.05,0.21-0.1,0.43-0.13,0.64c-0.03,0.21-0.06,0.43-0.1,0.64c0.15,0.03,0.25,0.01,0.29-0.06c0.04-0.07,0.07-0.15,0.1-0.23
			c0.03-0.15,0.06-0.3,0.08-0.44s0.05-0.29,0.1-0.44c0.03-0.07,0.04-0.15,0.02-0.22c-0.02-0.07-0.04-0.15-0.06-0.22
			c-0.03-0.07-0.05-0.14-0.08-0.21c-0.03-0.07-0.03-0.14-0.01-0.22c0.02-0.05,0.04-0.11,0.06-0.16c0.02-0.05,0.04-0.11,0.06-0.16
			c-0.02-0.01-0.04-0.02-0.06-0.02s-0.03-0.01-0.06-0.02V7.15z"/>
		<path class="st0" d="M12.9,6.57c-0.07,0.24-0.15,0.52-0.23,0.86s-0.13,0.66-0.15,0.97c-0.01,0.21,0,0.4,0.02,0.55
			c0.03,0.15,0.07,0.27,0.14,0.34c0.06,0.07,0.15,0.09,0.25,0.05c0.1-0.04,0.22-0.15,0.36-0.33c0.14-0.2,0.26-0.41,0.36-0.62
			c0.1-0.21,0.19-0.42,0.28-0.63c0.09-0.21,0.18-0.41,0.27-0.62s0.21-0.4,0.34-0.59c0.09-0.13,0.21-0.22,0.39-0.27
			c0.17-0.05,0.34-0.04,0.5,0.05c0.16,0.08,0.28,0.18,0.36,0.31c0.08,0.13,0.11,0.3,0.09,0.51c-0.01,0.06-0.02,0.21-0.02,0.43
			c-0.01,0.22,0,0.46,0.01,0.7s0.03,0.46,0.07,0.67c0.04,0.2,0.1,0.31,0.2,0.32c0.07,0.02,0.15-0.01,0.23-0.1s0.18-0.22,0.3-0.38
			c0.07-0.11,0.15-0.24,0.22-0.39c0.07-0.15,0.15-0.3,0.22-0.44c0.07-0.14,0.13-0.28,0.19-0.4c0.06-0.12,0.11-0.22,0.15-0.28
			c0.11-0.15,0.22-0.21,0.35-0.17c0.12,0.04,0.18,0.16,0.17,0.36c-0.03,0.16-0.11,0.36-0.23,0.61c-0.12,0.25-0.26,0.49-0.42,0.73
			c-0.16,0.24-0.34,0.46-0.53,0.67c-0.19,0.2-0.37,0.34-0.54,0.42c-0.22,0.1-0.41,0.12-0.56,0.07c-0.15-0.05-0.28-0.14-0.38-0.29
			c-0.1-0.14-0.18-0.32-0.22-0.52c-0.05-0.2-0.08-0.41-0.1-0.63s-0.02-0.42-0.01-0.62c0.01-0.2,0.03-0.36,0.06-0.47
			c-0.13,0.25-0.26,0.5-0.39,0.76c-0.13,0.26-0.28,0.5-0.43,0.73c-0.16,0.22-0.32,0.43-0.5,0.6c-0.18,0.18-0.37,0.3-0.59,0.38
			c-0.15,0.05-0.31,0.09-0.48,0.11c-0.17,0.02-0.32,0.01-0.46-0.05c-0.27-0.14-0.47-0.34-0.59-0.6c-0.12-0.26-0.16-0.55-0.14-0.86
			c0.01-0.28,0.04-0.56,0.1-0.84c0.06-0.28,0.11-0.56,0.17-0.83c0.08-0.26,0.17-0.41,0.25-0.45c0.08-0.04,0.25-0.05,0.49-0.02
			c0.14,0.02,0.25,0.05,0.34,0.09C12.88,6.5,12.92,6.54,12.9,6.57z"/>
		<path class="st0" d="M21.75,7.53c-0.12,0.02-0.26,0.04-0.43,0.06c-0.17,0.02-0.29,0.03-0.38,0.04h-0.03
			c-0.05,0.24-0.14,0.5-0.25,0.79c-0.11,0.29-0.24,0.57-0.39,0.83c-0.15,0.26-0.32,0.48-0.5,0.66c-0.18,0.18-0.36,0.28-0.53,0.3
			c-0.31,0.04-0.62,0.04-0.91-0.02c-0.3-0.05-0.56-0.24-0.77-0.56c-0.18-0.3-0.29-0.62-0.33-0.97c-0.04-0.35-0.01-0.68,0.07-0.99
			c0.09-0.31,0.23-0.58,0.43-0.8c0.2-0.22,0.44-0.35,0.73-0.38c-0.05-0.16-0.08-0.35-0.07-0.56c0-0.21,0.05-0.42,0.14-0.61
			c0.09-0.19,0.22-0.35,0.4-0.48c0.18-0.13,0.41-0.19,0.71-0.18c0.33,0.02,0.59,0.13,0.79,0.33c0.19,0.2,0.33,0.43,0.42,0.68
			c0.09,0.26,0.14,0.51,0.15,0.76c0.02,0.25,0.02,0.44,0.01,0.57c0.13,0.01,0.25,0.02,0.37,0.02s0.24,0.01,0.37,0.02
			c0.33,0,0.51,0.06,0.53,0.19S22.13,7.46,21.75,7.53z M18.75,7.03c-0.13,0.24-0.21,0.48-0.26,0.73c-0.04,0.25-0.04,0.49,0,0.71
			c0.04,0.22,0.12,0.41,0.23,0.59c0.11,0.17,0.26,0.29,0.44,0.35c0.14-0.11,0.26-0.24,0.38-0.39c0.11-0.15,0.21-0.31,0.29-0.48
			s0.15-0.34,0.2-0.5c0.05-0.16,0.1-0.3,0.13-0.42c-0.29-0.01-0.58-0.06-0.86-0.16S18.84,7.23,18.75,7.03z M20.26,6.98
			c0.02-0.26,0.01-0.53-0.02-0.82s-0.1-0.54-0.2-0.75c-0.12-0.24-0.25-0.37-0.39-0.39c-0.14-0.03-0.26,0.01-0.38,0.1
			c-0.11,0.1-0.2,0.24-0.26,0.42c-0.06,0.18-0.07,0.36-0.02,0.53c0.06,0.26,0.21,0.48,0.43,0.67C19.65,6.92,19.93,7.01,20.26,6.98z"
			/>
		<path class="st0" d="M24.24,6.68c-0.05,0.09-0.11,0.17-0.18,0.25c-0.07,0.08-0.13,0.16-0.18,0.25c-0.1,0.18-0.22,0.4-0.36,0.64
			c-0.14,0.25-0.28,0.5-0.41,0.78c-0.13,0.27-0.24,0.54-0.35,0.81c-0.1,0.27-0.16,0.51-0.18,0.72c0,0.05-0.03,0.1-0.08,0.15
			c-0.05,0.05-0.11,0.08-0.16,0.1c-0.05,0.02-0.12,0.03-0.2,0.02s-0.16-0.01-0.25-0.01c-0.02-0.14-0.05-0.27-0.07-0.39
			c-0.03-0.12-0.05-0.23-0.06-0.35c-0.04-0.44-0.04-0.87,0.02-1.3c0.05-0.43,0.12-0.85,0.21-1.27c0.01-0.04,0.02-0.09,0.03-0.13
			c0.01-0.04,0.02-0.07,0.03-0.1c0.09-0.21,0.18-0.35,0.29-0.41c0.11-0.06,0.29-0.06,0.55-0.01c-0.03,0.3-0.06,0.6-0.1,0.9
			c-0.03,0.3-0.07,0.6-0.11,0.9c0.04,0.02,0.08,0.03,0.11,0.03c0.1-0.18,0.21-0.4,0.34-0.67s0.28-0.52,0.44-0.79
			c0.16-0.26,0.32-0.51,0.48-0.75c0.16-0.24,0.32-0.44,0.47-0.59c0.02-0.02,0.1-0.03,0.24-0.02c0.14,0.01,0.24,0,0.29-0.01
			c-0.02,0.46-0.02,0.91-0.01,1.36s0.01,0.9-0.01,1.36c-0.16-0.09-0.3-0.19-0.42-0.33s-0.18-0.27-0.19-0.41
			c-0.01-0.12-0.02-0.24-0.02-0.36s-0.01-0.25-0.02-0.38C24.33,6.7,24.31,6.7,24.29,6.7S24.26,6.69,24.24,6.68z"/>
		<path class="st0" d="M36.88,7.9c-0.15,0.13-0.29,0.25-0.42,0.36s-0.27,0.21-0.42,0.3c-0.14,0.09-0.31,0.18-0.51,0.28
			c-0.2,0.1-0.4,0.21-0.61,0.31c-0.21,0.11-0.42,0.21-0.63,0.3s-0.41,0.18-0.58,0.26c0,0.09,0,0.2-0.01,0.34
			c-0.01,0.14-0.01,0.28-0.02,0.42c-0.01,0.14-0.02,0.28-0.04,0.41c-0.02,0.13-0.02,0.22-0.02,0.27c0,0.05-0.02,0.11-0.05,0.18
			c-0.03,0.06-0.06,0.14-0.1,0.24c-0.1-0.12-0.16-0.25-0.18-0.39c-0.02-0.14-0.03-0.28-0.02-0.42c0.01-0.14,0.01-0.29,0.01-0.43
			c0-0.14-0.03-0.27-0.08-0.38c-0.05,0.02-0.12,0.03-0.18,0.03S32.88,10,32.8,10.02c-0.34,0.09-0.69,0.14-1.05,0.18
			c-0.36,0.03-0.72,0.02-1.08-0.03c-0.31-0.04-0.53-0.14-0.65-0.3c-0.12-0.16-0.17-0.39-0.15-0.69c0.02-0.31,0.1-0.59,0.22-0.85
			s0.3-0.49,0.51-0.71c0.21-0.21,0.44-0.41,0.68-0.59c0.24-0.18,0.48-0.35,0.71-0.54c0.07-0.07,0.16-0.14,0.26-0.18
			c0.1-0.05,0.21-0.11,0.34-0.2l-0.9-0.24c-0.25-0.09-0.41-0.2-0.5-0.33c-0.09-0.13-0.1-0.33-0.03-0.59
			c0.05-0.25,0.15-0.47,0.3-0.67c0.57-0.95,1.4-1.63,2.49-2.04c0.09-0.36,0.18-0.72,0.28-1.08s0.31-0.7,0.62-1.02
			c0,0.2,0.01,0.38,0.02,0.54c0.01,0.16,0,0.31-0.02,0.46c-0.01,0.15-0.03,0.29-0.05,0.43c-0.02,0.14-0.04,0.29-0.05,0.45
			c0.19-0.02,0.38-0.03,0.57-0.04c0.19-0.01,0.36,0.01,0.53,0.06c0.17,0.04,0.32,0.12,0.46,0.22s0.27,0.25,0.39,0.44
			c0.01,0.05,0,0.09-0.02,0.1c-0.03,0.02-0.06,0.02-0.11,0.02c-0.05,0-0.1-0.01-0.15-0.02c-0.05-0.01-0.1-0.02-0.13-0.02
			c-0.19-0.02-0.38-0.01-0.55,0.02c-0.18,0.04-0.34,0.08-0.5,0.14C35.08,3,34.93,3.05,34.8,3.12c-0.13,0.06-0.25,0.12-0.34,0.16
			c-0.01,0.2-0.03,0.44-0.06,0.71c-0.03,0.27-0.06,0.54-0.09,0.81c-0.03,0.27-0.06,0.53-0.1,0.77C34.18,5.81,34.16,6,34.15,6.15
			c-0.05,0.36-0.11,0.72-0.18,1.07S33.85,7.94,33.8,8.3c-0.02,0.09-0.03,0.18-0.03,0.27c0,0.1-0.01,0.21-0.03,0.34
			c0.09-0.02,0.16-0.03,0.23-0.04c0.07,0,0.13-0.02,0.18-0.06c0.34-0.18,0.68-0.37,1.01-0.55s0.66-0.38,0.98-0.59
			c0.1-0.06,0.17-0.11,0.22-0.14c0.05-0.03,0.1-0.03,0.15-0.02c0.05,0.01,0.1,0.05,0.14,0.1C36.71,7.68,36.78,7.77,36.88,7.9z
			 M33.54,6.78c-0.02-0.01-0.05-0.02-0.07-0.03c-0.03-0.01-0.06-0.02-0.09-0.03c-0.42,0.25-0.8,0.53-1.15,0.84
			c-0.35,0.32-0.65,0.68-0.9,1.08c-0.11,0.16-0.18,0.33-0.21,0.51c-0.03,0.18,0,0.37,0.1,0.59c0.36,0.02,0.7-0.02,1.02-0.14
			c0.31-0.11,0.63-0.24,0.94-0.38c0.04-0.01,0.08-0.04,0.11-0.09c0.03-0.05,0.05-0.09,0.06-0.14c0.04-0.37,0.08-0.75,0.1-1.11
			C33.48,7.51,33.51,7.14,33.54,6.78z M33.67,5.72l0.16-2c-0.36,0.26-0.67,0.52-0.93,0.8c-0.26,0.28-0.46,0.63-0.61,1.06L33.67,5.72
			z"/>
		<path class="st0" d="M52.24,6.07c0.07-0.14,0.15-0.27,0.22-0.4c0.07-0.13,0.13-0.27,0.18-0.42c0.14-0.53,0.27-1.07,0.4-1.61
			c0.13-0.54,0.27-1.08,0.42-1.63c0.05-0.13,0.1-0.25,0.15-0.38c0.05-0.12,0.1-0.25,0.15-0.39c0.04,0.04,0.09,0.08,0.13,0.1
			c-0.02,0.12-0.04,0.25-0.05,0.38c-0.01,0.14-0.03,0.27-0.05,0.38c-0.32,1.23-0.64,2.45-0.95,3.66s-0.63,2.42-0.96,3.64
			c-0.09,0.31-0.19,0.61-0.3,0.91c-0.12,0.29-0.25,0.57-0.4,0.84c-0.18,0.31-0.4,0.54-0.66,0.7c-0.26,0.15-0.52,0.23-0.8,0.23
			c-0.28,0-0.55-0.07-0.81-0.22c-0.26-0.15-0.48-0.38-0.67-0.69c-0.18-0.33-0.33-0.68-0.45-1.06c-0.12-0.37-0.2-0.76-0.26-1.17
			c-0.1-0.76-0.18-1.52-0.24-2.27c-0.06-0.75-0.13-1.52-0.21-2.29c-0.01-0.09-0.02-0.17-0.03-0.26c-0.01-0.09-0.02-0.19-0.02-0.3
			c-0.12,0.03-0.2,0.11-0.23,0.22c-0.04,0.12-0.08,0.22-0.12,0.32c-0.36,0.91-0.72,1.81-1.06,2.71c-0.34,0.9-0.69,1.8-1.04,2.71
			c-0.1,0.24-0.2,0.47-0.31,0.69s-0.22,0.45-0.33,0.67c-0.02,0.03-0.05,0.07-0.07,0.1c-0.03,0.04-0.05,0.07-0.07,0.1
			c-0.16,0.18-0.35,0.29-0.58,0.33c-0.22,0.04-0.45,0.02-0.67-0.06c-0.22-0.07-0.42-0.2-0.6-0.38c-0.18-0.18-0.3-0.4-0.37-0.66
			c-0.05-0.24-0.09-0.48-0.12-0.74c-0.03-0.26-0.03-0.51-0.02-0.75c0.06-1.22,0.18-2.41,0.36-3.57c0.18-1.16,0.45-2.3,0.81-3.42
			c0.11-0.33,0.25-0.64,0.42-0.93s0.33-0.58,0.48-0.88c0.06-0.13,0.14-0.22,0.24-0.26c0.1-0.05,0.2-0.04,0.32,0.02
			c0.06,0.03,0.14,0.07,0.22,0.1s0.16,0.08,0.23,0.13c0.07,0.05,0.12,0.1,0.14,0.17c0.03,0.06,0.01,0.14-0.06,0.24
			c-0.07,0.12-0.17,0.29-0.28,0.52S44.12,1.71,44,2c-0.12,0.29-0.23,0.61-0.33,0.94c-0.1,0.33-0.18,0.65-0.25,0.96
			c-0.19,0.97-0.35,1.96-0.46,2.96s-0.16,2.05-0.14,3.15c0.17-0.25,0.32-0.46,0.43-0.65S43.49,9,43.6,8.81
			c0.62-1.11,1.18-2.27,1.69-3.47c0.51-1.2,1.01-2.42,1.52-3.65c0.04-0.11,0.08-0.22,0.12-0.33c0.04-0.11,0.08-0.22,0.12-0.34
			c0.04-0.11,0.1-0.22,0.16-0.31c0.06-0.1,0.15-0.19,0.26-0.27c0.06,0.04,0.14,0.09,0.22,0.14c0.09,0.05,0.17,0.1,0.26,0.17
			c-0.08,0.29-0.12,0.58-0.12,0.87s0,0.58,0.02,0.86c0.02,0.28,0.05,0.56,0.1,0.84c0.04,0.28,0.07,0.56,0.1,0.83
			c0.05,0.76,0.12,1.51,0.19,2.25s0.16,1.48,0.26,2.21c0.05,0.4,0.12,0.77,0.21,1.13c0.09,0.36,0.23,0.69,0.45,1
			c-0.2-0.74-0.36-1.48-0.47-2.24s-0.19-1.51-0.25-2.28c-0.06-0.76-0.11-1.53-0.15-2.3c-0.04-0.77-0.1-1.53-0.16-2.29
			c-0.01-0.03-0.01-0.07,0.02-0.11c0.02-0.04,0.05-0.12,0.08-0.24c0.04,0.17,0.08,0.3,0.12,0.4c0.04,0.1,0.06,0.2,0.07,0.32
			c0.09,0.71,0.16,1.41,0.22,2.11c0.06,0.7,0.14,1.4,0.22,2.11c0.09,0.61,0.18,1.21,0.27,1.81c0.1,0.6,0.19,1.19,0.27,1.78
			c0.03,0.16,0.08,0.32,0.14,0.47c0.06,0.16,0.13,0.34,0.19,0.55c0.1-0.18,0.18-0.34,0.25-0.47s0.13-0.26,0.18-0.4
			c0.16-0.45,0.32-0.89,0.49-1.32c0.17-0.43,0.32-0.88,0.46-1.36c0.28-0.93,0.55-1.86,0.82-2.78c0.27-0.92,0.54-1.85,0.82-2.78
			c0.02-0.09,0.05-0.17,0.08-0.26c0.03-0.09,0.06-0.18,0.1-0.28c0.15,0.05,0.23,0.13,0.23,0.23c0.01,0.1,0,0.21-0.02,0.31
			c-0.11,0.52-0.21,1.04-0.31,1.56c-0.1,0.51-0.2,1.03-0.3,1.56c-0.05,0.2-0.1,0.41-0.14,0.62c-0.04,0.21-0.09,0.42-0.13,0.63
			c-0.09,0.27-0.17,0.53-0.24,0.79c-0.08,0.26-0.16,0.52-0.26,0.8c-0.06,0.29-0.13,0.57-0.19,0.86c-0.06,0.28-0.13,0.57-0.21,0.86
			c0.04-0.14,0.1-0.28,0.17-0.41c0.07-0.13,0.13-0.27,0.18-0.4c0.05-0.13,0.08-0.28,0.1-0.43c0.02-0.15,0-0.31-0.04-0.48
			c0.24-0.18,0.38-0.41,0.43-0.7C52.24,6.69,52.25,6.39,52.24,6.07z"/>
		<path class="st0" d="M56.22,7.64c-0.06,0.14-0.14,0.3-0.22,0.5c-0.09,0.19-0.18,0.38-0.29,0.58c-0.11,0.19-0.22,0.37-0.33,0.55
			c-0.11,0.17-0.23,0.31-0.34,0.42c-0.21,0.2-0.43,0.33-0.63,0.39c-0.21,0.06-0.4,0.06-0.56,0.01c-0.17-0.05-0.3-0.16-0.41-0.31
			c-0.11-0.15-0.17-0.36-0.19-0.6c-0.04-0.33-0.05-0.68-0.02-1.05c0.03-0.37,0.09-0.71,0.18-1.02c0.02-0.05,0.08-0.11,0.18-0.17
			c0.1-0.06,0.21-0.1,0.33-0.14s0.22-0.05,0.3-0.04s0.12,0.05,0.11,0.12c-0.06,0.5-0.11,0.9-0.14,1.19
			c-0.03,0.29-0.04,0.5-0.03,0.63c0.01,0.13,0.02,0.18,0.03,0.17c0.02-0.02,0.03-0.08,0.04-0.2c0.02-0.21,0.05-0.49,0.09-0.83
			c0.04-0.34,0.09-0.65,0.15-0.91c0.01-0.03,0.03,0,0.06,0.09c0.03,0.09,0.04,0.16,0.04,0.22c-0.03,0.28-0.06,0.58-0.08,0.91
			c-0.02,0.33-0.04,0.62-0.06,0.89c-0.01,0.17,0.01,0.28,0.06,0.33c0.05,0.05,0.11,0.06,0.18,0.03s0.15-0.08,0.22-0.15
			c0.07-0.07,0.13-0.15,0.17-0.22c0.14-0.26,0.29-0.54,0.44-0.86c0.15-0.32,0.29-0.59,0.41-0.81c0.02-0.04,0.07-0.08,0.14-0.11
			c0.07-0.03,0.13-0.04,0.18-0.02c0.05,0.02,0.09,0.06,0.1,0.13C56.34,7.38,56.31,7.49,56.22,7.64z M54.44,5.19
			c0.14,0.27,0.13,0.46-0.02,0.58c-0.15,0.12-0.36,0.13-0.63,0.05c-0.07-0.1-0.11-0.2-0.12-0.3s0.02-0.2,0.08-0.28
			s0.15-0.13,0.26-0.14C54.14,5.07,54.28,5.1,54.44,5.19z"/>
		<path class="st0" d="M59.08,7.63c-0.75,0.64-1.35,1.41-1.81,2.29c-0.63,0.09-1.07-0.03-1.32-0.34c-0.25-0.32-0.35-0.76-0.32-1.34
			c0.02-0.42,0.07-0.83,0.14-1.25c0.08-0.42,0.15-0.83,0.24-1.23c0.01-0.05,0.06-0.11,0.14-0.17s0.16-0.13,0.23-0.2
			c0.02,0.05,0.05,0.12,0.08,0.18c0.03,0.07,0.06,0.13,0.1,0.18c0.09-0.09,0.16-0.12,0.23-0.11c0.07,0.01,0.12,0.04,0.15,0.08
			c0.05,0.05,0.09,0.13,0.1,0.24s0.01,0.21,0,0.3c-0.02,0.41-0.05,0.82-0.09,1.23c-0.04,0.42-0.07,0.87-0.09,1.35
			c0.25-0.3,0.48-0.57,0.7-0.83c0.22-0.25,0.45-0.49,0.68-0.71c0.35-0.35,0.73-0.56,1.12-0.63c0.28-0.02,0.47,0.02,0.57,0.13
			s0.15,0.33,0.15,0.66c0.01,0.22,0.03,0.42,0.06,0.6c0.03,0.18,0.08,0.36,0.14,0.54c0.12,0.42,0.26,0.61,0.43,0.57
			c0.17-0.04,0.37-0.22,0.62-0.54c0.14-0.18,0.28-0.38,0.41-0.59s0.26-0.4,0.39-0.59c0.05-0.07,0.11-0.15,0.18-0.23
			c0.07-0.08,0.14-0.14,0.21-0.17c0.07-0.03,0.14-0.03,0.2,0c0.06,0.03,0.13,0.11,0.19,0.24c-0.06,0.18-0.18,0.39-0.34,0.63
			c-0.16,0.24-0.33,0.48-0.52,0.71s-0.37,0.45-0.56,0.63c-0.19,0.19-0.34,0.31-0.46,0.38c-0.33,0.18-0.61,0.26-0.85,0.22
			c-0.24-0.03-0.45-0.2-0.66-0.51c-0.05-0.09-0.11-0.2-0.17-0.34c-0.06-0.14-0.11-0.29-0.16-0.45c-0.05-0.16-0.09-0.33-0.11-0.5
			C59.07,7.92,59.07,7.77,59.08,7.63z M57.18,8.77c0.04,0,0.06,0.02,0.06,0.06c0.01-0.01,0.06-0.07,0.14-0.17
			c0.09-0.1,0.18-0.21,0.27-0.33c0.1-0.12,0.19-0.23,0.27-0.33c0.09-0.1,0.14-0.16,0.16-0.18c-0.01-0.01-0.01-0.02-0.01-0.03
			s0-0.02-0.01-0.02C58.06,7.79,58,7.85,57.91,7.94c-0.09,0.09-0.19,0.19-0.29,0.3s-0.19,0.22-0.28,0.32
			C57.26,8.67,57.21,8.73,57.18,8.77z M59.43,7.47c-0.02,0-0.04,0-0.06,0.01c-0.02,0.01-0.03,0-0.06-0.01
			c0.01,0.04,0.03,0.12,0.05,0.24c0.02,0.12,0.05,0.24,0.08,0.38s0.06,0.26,0.08,0.38s0.04,0.21,0.05,0.25c0.01,0,0.02,0,0.02-0.01
			s0.02,0,0.04,0.01c0-0.04-0.01-0.12-0.04-0.24c-0.03-0.12-0.05-0.24-0.07-0.38c-0.02-0.13-0.04-0.26-0.06-0.38
			C59.44,7.59,59.43,7.51,59.43,7.47z"/>
		<path class="st0" d="M65.83,7.92c-0.13,0.22-0.29,0.47-0.48,0.74c-0.19,0.27-0.41,0.51-0.64,0.74s-0.49,0.41-0.76,0.55
			c-0.27,0.14-0.55,0.19-0.84,0.16c-0.38-0.05-0.67-0.22-0.84-0.5c-0.18-0.28-0.28-0.6-0.31-0.96c-0.03-0.36,0-0.73,0.07-1.11
			c0.08-0.37,0.17-0.68,0.29-0.93c0.18-0.41,0.43-0.69,0.74-0.84c0.31-0.15,0.65-0.19,1.03-0.1c0.2,0.07,0.33,0.19,0.39,0.34
			c0.06,0.15,0.07,0.32,0.03,0.5c-0.04,0.18-0.11,0.37-0.22,0.57c-0.11,0.2-0.24,0.38-0.39,0.54c-0.14,0.16-0.29,0.3-0.43,0.42
			c-0.14,0.12-0.27,0.19-0.38,0.21c0,0.15,0.01,0.32,0.03,0.52c0.02,0.2,0.06,0.36,0.13,0.47c0.07,0.16,0.21,0.21,0.4,0.15
			S64.05,9.19,64.29,9c0.24-0.19,0.48-0.42,0.74-0.71c0.26-0.28,0.49-0.58,0.71-0.89c0.16-0.16,0.26-0.24,0.31-0.23
			c0.05,0.01,0.06,0.05,0.05,0.14c-0.02,0.09-0.05,0.19-0.11,0.31C65.92,7.74,65.87,7.84,65.83,7.92z M63.71,6.07
			c-0.12,0.15-0.21,0.29-0.28,0.42c-0.07,0.13-0.12,0.26-0.16,0.38s-0.07,0.26-0.09,0.41s-0.03,0.31-0.03,0.49
			c0.07-0.1,0.17-0.22,0.3-0.38c0.12-0.15,0.24-0.32,0.34-0.48c0.11-0.17,0.19-0.33,0.26-0.48c0.06-0.15,0.07-0.29,0.02-0.39
			c-0.03-0.06-0.08-0.1-0.14-0.1C63.86,5.94,63.79,5.98,63.71,6.07z"/>
	</g>
	<g>
		<path class="st1" d="M1.84,25.72V15.28H4.6c1.22,0,2.19,0.39,2.91,1.16c0.72,0.77,1.09,1.83,1.11,3.18v1.69
			c0,1.37-0.36,2.45-1.09,3.23c-0.72,0.78-1.72,1.17-2.99,1.17H1.84z M3.95,17.04v6.93h0.63c0.7,0,1.2-0.19,1.48-0.56
			c0.29-0.37,0.44-1.01,0.45-1.92v-1.81c0-0.97-0.14-1.65-0.41-2.04c-0.27-0.38-0.74-0.59-1.39-0.61H3.95z"/>
		<path class="st1" d="M14.96,23.58h-2.87l-0.56,2.14H9.3l3.26-10.44h1.93l3.28,10.44h-2.25L14.96,23.58z M12.55,21.82h1.95
			l-0.97-3.72L12.55,21.82z"/>
		<path class="st1" d="M24.65,17.04h-2.58v8.68h-2.11v-8.68h-2.54v-1.76h7.23V17.04z"/>
		<path class="st1" d="M29.98,23.58H27.1l-0.56,2.14h-2.23l3.26-10.44h1.93l3.28,10.44h-2.25L29.98,23.58z M27.56,21.82h1.95
			l-0.97-3.72L27.56,21.82z"/>
		<path class="st1" d="M33.76,25.72V15.28h3.23c1.09,0,1.92,0.24,2.48,0.73c0.57,0.49,0.85,1.2,0.85,2.13
			c0,0.53-0.12,0.99-0.35,1.37c-0.23,0.38-0.55,0.66-0.96,0.84c0.47,0.13,0.83,0.4,1.08,0.81s0.38,0.9,0.38,1.49
			c0,1.01-0.28,1.78-0.83,2.29s-1.36,0.77-2.42,0.77H33.76z M35.87,19.65h1.1c0.83,0,1.24-0.43,1.24-1.28c0-0.47-0.1-0.81-0.29-1.02
			c-0.19-0.21-0.5-0.31-0.93-0.31h-1.12V19.65z M35.87,21.18v2.79h1.35c0.38,0,0.66-0.12,0.86-0.35c0.2-0.23,0.29-0.57,0.29-1
			c0-0.94-0.34-1.42-1.02-1.44H35.87z"/>
		<path class="st1" d="M46.98,23.58h-2.87l-0.56,2.14h-2.23l3.26-10.44h1.93l3.28,10.44h-2.25L46.98,23.58z M44.56,21.82h1.95
			l-0.97-3.72L44.56,21.82z"/>
		<path class="st1" d="M55.17,22.98c0-0.43-0.11-0.75-0.33-0.96c-0.22-0.22-0.61-0.44-1.19-0.68c-1.05-0.4-1.8-0.86-2.26-1.39
			c-0.46-0.53-0.69-1.16-0.69-1.89c0-0.88,0.31-1.58,0.94-2.12s1.42-0.8,2.38-0.8c0.64,0,1.21,0.13,1.71,0.4
			c0.5,0.27,0.89,0.65,1.16,1.14s0.41,1.05,0.41,1.68h-2.1c0-0.49-0.1-0.86-0.31-1.11c-0.21-0.26-0.51-0.38-0.9-0.38
			c-0.37,0-0.65,0.11-0.86,0.33c-0.21,0.22-0.31,0.51-0.31,0.88c0,0.29,0.11,0.55,0.34,0.78c0.23,0.23,0.64,0.47,1.22,0.72
			c1.02,0.37,1.76,0.82,2.22,1.35c0.46,0.54,0.69,1.22,0.69,2.04c0,0.91-0.29,1.62-0.87,2.13s-1.36,0.77-2.36,0.77
			c-0.67,0-1.29-0.14-1.84-0.42c-0.55-0.28-0.99-0.67-1.3-1.19c-0.31-0.52-0.47-1.13-0.47-1.83h2.11c0,0.6,0.12,1.04,0.35,1.31
			c0.23,0.27,0.62,0.41,1.15,0.41C54.8,24.15,55.17,23.76,55.17,22.98z"/>
		<path class="st1" d="M64.08,21.2H60.8v2.77h3.88v1.75h-5.99V15.28h5.98v1.76H60.8v2.47h3.28V21.2z"/>
	</g>
	<g>
		<path class="st2" d="M8.71,32.71l0.85-1.64h0.49l-1.13,2.05v1.22H8.49v-1.22l-1.13-2.05h0.49L8.71,32.71z"/>
		<path class="st2" d="M12.93,32.81c0,0.32-0.05,0.6-0.16,0.84c-0.11,0.24-0.26,0.42-0.46,0.55c-0.2,0.13-0.43,0.19-0.69,0.19
			c-0.26,0-0.49-0.06-0.69-0.19s-0.35-0.31-0.46-0.54c-0.11-0.23-0.17-0.51-0.17-0.81V32.6c0-0.31,0.05-0.59,0.16-0.83
			c0.11-0.24,0.26-0.43,0.46-0.55c0.2-0.13,0.43-0.19,0.69-0.19c0.26,0,0.49,0.06,0.69,0.19c0.2,0.13,0.35,0.31,0.46,0.55
			c0.11,0.24,0.16,0.52,0.16,0.84V32.81z M12.5,32.6c0-0.39-0.08-0.69-0.23-0.89c-0.16-0.21-0.37-0.31-0.65-0.31
			c-0.27,0-0.49,0.1-0.64,0.31c-0.16,0.21-0.24,0.5-0.24,0.86v0.24c0,0.38,0.08,0.67,0.24,0.89c0.16,0.21,0.38,0.32,0.65,0.32
			c0.28,0,0.49-0.1,0.65-0.3c0.15-0.2,0.23-0.49,0.24-0.87V32.6z"/>
		<path class="st2" d="M15.88,31.07v2.22c0,0.31-0.1,0.56-0.29,0.76c-0.19,0.2-0.45,0.31-0.78,0.33l-0.11,0
			c-0.36,0-0.64-0.1-0.86-0.29c-0.21-0.19-0.32-0.46-0.32-0.8v-2.23h0.43v2.21c0,0.24,0.06,0.42,0.2,0.55
			c0.13,0.13,0.32,0.2,0.56,0.2c0.24,0,0.43-0.07,0.56-0.2c0.13-0.13,0.19-0.31,0.19-0.55v-2.22H15.88z"/>
		<path class="st2" d="M17.76,33.01h-0.77v1.32h-0.43v-3.27h1.08c0.37,0,0.65,0.08,0.85,0.25c0.2,0.17,0.3,0.41,0.3,0.73
			c0,0.2-0.06,0.38-0.17,0.53c-0.11,0.15-0.26,0.26-0.46,0.34l0.77,1.39v0.03h-0.46L17.76,33.01z M16.99,32.66h0.66
			c0.21,0,0.38-0.06,0.51-0.17c0.13-0.11,0.19-0.26,0.19-0.45c0-0.2-0.06-0.36-0.18-0.47s-0.29-0.16-0.52-0.16h-0.66V32.66z"/>
		<path class="st2" d="M21.49,32.88c-0.37-0.11-0.64-0.24-0.81-0.39c-0.17-0.16-0.25-0.35-0.25-0.57c0-0.26,0.1-0.47,0.31-0.64
			s0.47-0.25,0.8-0.25c0.22,0,0.42,0.04,0.6,0.13c0.18,0.09,0.31,0.21,0.41,0.36c0.1,0.15,0.14,0.32,0.14,0.5h-0.43
			c0-0.2-0.06-0.35-0.19-0.47s-0.3-0.17-0.53-0.17c-0.21,0-0.38,0.05-0.5,0.14s-0.18,0.22-0.18,0.39c0,0.13,0.06,0.25,0.17,0.34
			c0.11,0.09,0.31,0.18,0.58,0.25c0.27,0.08,0.48,0.16,0.64,0.25s0.27,0.2,0.34,0.32c0.07,0.12,0.11,0.27,0.11,0.43
			c0,0.27-0.1,0.48-0.31,0.64s-0.48,0.24-0.83,0.24c-0.22,0-0.43-0.04-0.63-0.13c-0.19-0.09-0.34-0.2-0.45-0.35
			c-0.11-0.15-0.16-0.32-0.16-0.51h0.43c0,0.2,0.07,0.35,0.22,0.47c0.15,0.11,0.34,0.17,0.59,0.17c0.23,0,0.4-0.05,0.52-0.14
			c0.12-0.09,0.18-0.22,0.18-0.38s-0.06-0.28-0.17-0.37C21.99,33.05,21.79,32.96,21.49,32.88z"/>
		<path class="st2" d="M25.77,32.81c0,0.32-0.05,0.6-0.16,0.84c-0.11,0.24-0.26,0.42-0.46,0.55c-0.2,0.13-0.43,0.19-0.69,0.19
			c-0.26,0-0.49-0.06-0.69-0.19s-0.35-0.31-0.46-0.54c-0.11-0.23-0.17-0.51-0.17-0.81V32.6c0-0.31,0.05-0.59,0.16-0.83
			c0.11-0.24,0.26-0.43,0.46-0.55c0.2-0.13,0.43-0.19,0.69-0.19c0.26,0,0.49,0.06,0.69,0.19c0.2,0.13,0.35,0.31,0.46,0.55
			c0.11,0.24,0.16,0.52,0.16,0.84V32.81z M25.34,32.6c0-0.39-0.08-0.69-0.23-0.89c-0.16-0.21-0.37-0.31-0.65-0.31
			c-0.27,0-0.49,0.1-0.64,0.31c-0.16,0.21-0.24,0.5-0.24,0.86v0.24c0,0.38,0.08,0.67,0.24,0.89c0.16,0.21,0.38,0.32,0.65,0.32
			c0.28,0,0.49-0.1,0.65-0.3c0.15-0.2,0.23-0.49,0.24-0.87V32.6z"/>
		<path class="st2" d="M28.72,31.07v2.22c0,0.31-0.1,0.56-0.29,0.76c-0.19,0.2-0.45,0.31-0.78,0.33l-0.11,0
			c-0.36,0-0.64-0.1-0.86-0.29c-0.21-0.19-0.32-0.46-0.32-0.8v-2.23h0.43v2.21c0,0.24,0.06,0.42,0.2,0.55
			c0.13,0.13,0.32,0.2,0.56,0.2c0.24,0,0.43-0.07,0.56-0.2c0.13-0.13,0.19-0.31,0.19-0.55v-2.22H28.72z"/>
		<path class="st2" d="M30.6,33.01h-0.77v1.32H29.4v-3.27h1.08c0.37,0,0.65,0.08,0.85,0.25c0.2,0.17,0.3,0.41,0.3,0.73
			c0,0.2-0.06,0.38-0.17,0.53c-0.11,0.15-0.26,0.26-0.46,0.34l0.77,1.39v0.03h-0.46L30.6,33.01z M29.83,32.66h0.66
			c0.21,0,0.38-0.06,0.51-0.17c0.13-0.11,0.19-0.26,0.19-0.45c0-0.2-0.06-0.36-0.18-0.47s-0.29-0.16-0.52-0.16h-0.66V32.66z"/>
		<path class="st2" d="M34.64,33.3c-0.04,0.35-0.17,0.61-0.38,0.8s-0.5,0.28-0.86,0.28c-0.39,0-0.7-0.14-0.93-0.42
			s-0.35-0.65-0.35-1.11v-0.31c0-0.3,0.05-0.57,0.16-0.8c0.11-0.23,0.26-0.41,0.46-0.53s0.43-0.19,0.69-0.19
			c0.35,0,0.63,0.1,0.84,0.29c0.21,0.19,0.33,0.46,0.37,0.81h-0.43c-0.04-0.26-0.12-0.45-0.24-0.57s-0.3-0.18-0.52-0.18
			c-0.28,0-0.49,0.1-0.65,0.31c-0.16,0.2-0.23,0.49-0.23,0.87v0.32c0,0.36,0.07,0.64,0.22,0.85c0.15,0.21,0.36,0.31,0.62,0.31
			c0.24,0,0.42-0.05,0.55-0.16c0.13-0.11,0.21-0.3,0.25-0.57H34.64z"/>
		<path class="st2" d="M37.08,32.83h-1.42v1.16h1.65v0.35h-2.08v-3.27h2.06v0.35h-1.62v1.05h1.42V32.83z"/>
		<path class="st2" d="M40.79,32.89h-1.37v1.44h-0.43v-3.27h2.03v0.35h-1.59v1.12h1.37V32.89z"/>
		<path class="st2" d="M44.04,32.81c0,0.32-0.05,0.6-0.16,0.84c-0.11,0.24-0.26,0.42-0.46,0.55c-0.2,0.13-0.43,0.19-0.69,0.19
			c-0.26,0-0.49-0.06-0.69-0.19s-0.35-0.31-0.46-0.54c-0.11-0.23-0.17-0.51-0.17-0.81V32.6c0-0.31,0.05-0.59,0.16-0.83
			c0.11-0.24,0.26-0.43,0.46-0.55c0.2-0.13,0.43-0.19,0.69-0.19c0.26,0,0.49,0.06,0.69,0.19c0.2,0.13,0.35,0.31,0.46,0.55
			c0.11,0.24,0.16,0.52,0.16,0.84V32.81z M43.61,32.6c0-0.39-0.08-0.69-0.23-0.89c-0.16-0.21-0.37-0.31-0.65-0.31
			c-0.27,0-0.49,0.1-0.64,0.31c-0.16,0.21-0.24,0.5-0.24,0.86v0.24c0,0.38,0.08,0.67,0.24,0.89c0.16,0.21,0.38,0.32,0.65,0.32
			c0.28,0,0.49-0.1,0.65-0.3c0.15-0.2,0.23-0.49,0.24-0.87V32.6z"/>
		<path class="st2" d="M45.89,33.01h-0.77v1.32h-0.43v-3.27h1.08c0.37,0,0.65,0.08,0.85,0.25c0.2,0.17,0.3,0.41,0.3,0.73
			c0,0.2-0.06,0.38-0.17,0.53c-0.11,0.15-0.26,0.26-0.46,0.34l0.77,1.39v0.03H46.6L45.89,33.01z M45.12,32.66h0.66
			c0.21,0,0.38-0.06,0.51-0.17c0.13-0.11,0.19-0.26,0.19-0.45c0-0.2-0.06-0.36-0.18-0.47s-0.29-0.16-0.52-0.16h-0.66V32.66z"/>
		<path class="st2" d="M48.66,34.34v-3.27h0.92c0.28,0,0.54,0.06,0.75,0.19c0.22,0.13,0.39,0.3,0.51,0.54
			c0.12,0.23,0.18,0.5,0.18,0.8v0.21c0,0.31-0.06,0.58-0.18,0.81c-0.12,0.23-0.29,0.41-0.51,0.53c-0.22,0.12-0.48,0.19-0.77,0.19
			H48.66z M49.09,31.42v2.57h0.45c0.33,0,0.59-0.1,0.78-0.31c0.19-0.21,0.28-0.5,0.28-0.88V32.6c0-0.37-0.09-0.66-0.26-0.87
			c-0.17-0.21-0.42-0.31-0.74-0.31H49.09z"/>
		<path class="st2" d="M53.43,33.48h-1.37l-0.31,0.86h-0.44l1.25-3.27h0.38l1.25,3.27h-0.44L53.43,33.48z M52.19,33.13h1.11
			l-0.56-1.53L52.19,33.13z"/>
		<path class="st2" d="M56.6,31.42h-1.05v2.92h-0.43v-2.92h-1.05v-0.35h2.53V31.42z"/>
		<path class="st2" d="M58.71,33.48h-1.37l-0.31,0.86h-0.44l1.25-3.27h0.38l1.25,3.27h-0.44L58.71,33.48z M57.47,33.13h1.11
			l-0.56-1.53L57.47,33.13z"/>
	</g>
</g>
</svg>
